<svg width="24" height="24" viewBox="0 0 24 24" fill="none" xmlns="http://www.w3.org/2000/svg">
<path fill-rule="evenodd" clip-rule="evenodd" d="M11.5 20.9444C16.164 20.9444 19.9444 17.164 19.9444 12.5C19.9444 7.83603 16.164 4.05556 11.5 4.05556C6.83603 4.05556 3.05556 7.83603 3.05556 12.5C3.05556 17.164 6.83603 20.9444 11.5 20.9444ZM11.5 22C16.7466 22 21 17.7466 21 12.5C21 7.25336 16.7466 3 11.5 3C6.25336 3 2 7.25336 2 12.5C2 17.7466 6.25336 22 11.5 22Z" fill="#00225A"/>
<path fill-rule="evenodd" clip-rule="evenodd" d="M7.64462 14.6111C8.46531 16.6335 9.97739 17.7778 11.5 17.7778C13.0232 17.7778 14.5348 16.6335 15.3554 14.6111H7.64462ZM11.5 18.8333C9.36887 18.8333 7.52164 17.2247 6.61387 14.875C6.60498 14.8523 6.59619 14.8296 6.58748 14.8069C6.35209 14.1783 6.85559 13.5555 7.52745 13.5555H15.4731C16.145 13.5555 16.649 14.1783 16.4126 14.8069C16.4041 14.8296 16.3954 14.8523 16.3867 14.875C15.4784 17.2247 13.6312 18.8333 11.5 18.8333Z" fill="#00225A"/>
<path d="M10.0761 11.6777C10.1447 11.4888 10.1241 11.2582 10.0676 11.0481C9.99963 10.8062 9.89074 10.5777 9.74566 10.3725C9.43903 9.93501 8.93077 9.53337 8.24414 9.50382C7.53322 9.47426 7.00228 9.92551 6.67505 10.4042C6.51789 10.6346 6.39438 10.8863 6.30825 11.1515C6.23278 11.3869 6.19266 11.6276 6.21905 11.8202C6.22512 11.8642 6.24215 11.9058 6.26858 11.9414C6.29501 11.977 6.32999 12.0054 6.37027 12.0239C6.41056 12.0424 6.45487 12.0505 6.4991 12.0474C6.54333 12.0442 6.58605 12.03 6.62333 12.006C6.83444 11.8709 7.05558 11.6857 7.26036 11.5147C7.35325 11.4365 7.4435 11.3616 7.52689 11.2956C7.8235 11.0613 8.05466 10.9278 8.24572 10.9183C8.4278 10.9093 8.63786 11.0133 8.9028 11.2117C8.9978 11.2824 9.08964 11.3574 9.18464 11.4355L9.28755 11.5194C9.41633 11.6234 9.55355 11.73 9.69183 11.8134C9.72519 11.8335 9.76258 11.846 9.80133 11.8499C9.84008 11.8539 9.87923 11.8492 9.91595 11.8362C9.95268 11.8233 9.98609 11.8023 10.0138 11.7749C10.0414 11.7475 10.0627 11.7143 10.0761 11.6777ZM12.8791 11.6777C12.8105 11.4888 12.8316 11.2582 12.8881 11.0481C12.9472 10.8285 13.0564 10.5926 13.21 10.3725C13.5161 9.93501 14.0249 9.53337 14.7115 9.50382C15.4219 9.47426 15.9534 9.92551 16.2806 10.4042C16.4463 10.647 16.5698 10.9098 16.6474 11.1515C16.7224 11.3869 16.7625 11.6276 16.7361 11.8202C16.73 11.8641 16.7129 11.9057 16.6865 11.9412C16.6601 11.9767 16.6252 12.0051 16.585 12.0236C16.5448 12.0421 16.5006 12.0502 16.4564 12.0471C16.4123 12.044 16.3696 12.0299 16.3323 12.006C16.1212 11.8709 15.8996 11.6857 15.6953 11.5147C15.6074 11.4405 15.5186 11.3675 15.4288 11.2956C15.1316 11.0613 14.901 10.9278 14.7094 10.9183C14.5273 10.9093 14.3173 11.0133 14.0529 11.2117C13.9579 11.2824 13.866 11.3574 13.771 11.4355L13.6676 11.5194C13.5397 11.6263 13.4048 11.7245 13.2638 11.8134C13.2305 11.8336 13.193 11.8461 13.1542 11.8502C13.1154 11.8542 13.0762 11.8495 13.0394 11.8365C13.0026 11.8236 12.9691 11.8026 12.9414 11.7751C12.9137 11.7477 12.8924 11.7144 12.8791 11.6777Z" fill="#00225A"/>
</svg>
