<svg width="45" height="45" viewBox="0 0 45 45" fill="none" xmlns="http://www.w3.org/2000/svg">
<path d="M23.9966 37.3678H20.8745C20.5455 37.3665 20.2215 37.4487 19.933 37.6069C19.6445 37.765 19.4009 37.9937 19.225 38.2718C19.049 38.5498 18.9466 38.8679 18.9272 39.1963C18.9078 39.5247 18.9721 39.8527 19.1141 40.1495L19.6372 41.2455C19.7968 41.5768 20.0467 41.8562 20.3582 42.0516C20.6696 42.247 21.0299 42.3504 21.3976 42.3499H23.4735C23.8397 42.3488 24.1983 42.2447 24.5081 42.0494C24.818 41.8541 25.0666 41.5755 25.2255 41.2455L25.757 40.1495C25.899 39.8527 25.9633 39.5247 25.9439 39.1963C25.9245 38.8679 25.8221 38.5498 25.6461 38.2718C25.4702 37.9937 25.2266 37.765 24.9381 37.6069C24.6495 37.4487 24.3256 37.3665 23.9966 37.3678ZM24.254 39.4354L23.7309 40.5314C23.7073 40.5794 23.6706 40.6197 23.6251 40.6476C23.5795 40.6756 23.5269 40.69 23.4735 40.6892H21.3976C21.3442 40.69 21.2916 40.6756 21.246 40.6476C21.2005 40.6197 21.1638 40.5794 21.1402 40.5314L20.6171 39.4354C20.5957 39.392 20.5859 39.3439 20.5885 39.2957C20.5911 39.2474 20.606 39.2007 20.6318 39.1598C20.6577 39.119 20.6935 39.0855 20.736 39.0625C20.7785 39.0395 20.8262 39.0278 20.8745 39.0285H23.9883C24.0366 39.0278 24.0843 39.0395 24.1268 39.0625C24.1693 39.0855 24.2051 39.119 24.231 39.1598C24.2568 39.2007 24.2717 39.2474 24.2743 39.2957C24.2769 39.3439 24.267 39.392 24.2457 39.4354H24.254ZM18.8733 28.4747L17.2126 26.8139C17.0538 26.6779 16.8494 26.6068 16.6404 26.6149C16.4315 26.623 16.2332 26.7096 16.0853 26.8575C15.9375 27.0054 15.8508 27.2036 15.8428 27.4126C15.8347 27.6216 15.9058 27.8259 16.0418 27.9847L17.7025 29.6455C17.8614 29.7815 18.0657 29.8526 18.2747 29.8445C18.4837 29.8364 18.6819 29.7498 18.8298 29.6019C18.9777 29.454 19.0643 29.2558 19.0724 29.0468C19.0804 28.8378 19.0093 28.6335 18.8733 28.4747ZM27.1769 29.6538L28.8376 27.993C28.9736 27.8342 29.0447 27.6299 29.0366 27.4209C29.0286 27.2119 28.9419 27.0137 28.7941 26.8658C28.6462 26.7179 28.4479 26.6313 28.239 26.6232C28.03 26.6151 27.8256 26.6862 27.6668 26.8222L26.0061 28.483C25.9192 28.5574 25.8486 28.649 25.7987 28.752C25.7489 28.855 25.7209 28.9672 25.7165 29.0816C25.712 29.196 25.7313 29.31 25.7731 29.4165C25.8148 29.5231 25.8781 29.6199 25.959 29.7008C26.04 29.7817 26.1367 29.845 26.2433 29.8868C26.3499 29.9285 26.4639 29.9478 26.5782 29.9434C26.6926 29.939 26.8048 29.911 26.9078 29.8611C27.0108 29.8113 27.1024 29.7407 27.1769 29.6538Z" fill="white"/>
<path d="M44.7888 29.5624L43.4519 26.4652C42.7336 24.8118 42.3634 23.0283 42.3641 21.2256V20.7606C42.3602 18.8569 41.9712 16.9737 41.2206 15.2242C40.47 13.4747 39.3733 11.8951 37.9965 10.5805C39.3183 7.3748 39.3747 3.78704 38.1542 0.541433C38.1047 0.412259 38.0237 0.297505 37.9186 0.207594C37.8134 0.117683 37.6875 0.0554646 37.5522 0.0265911C37.4169 -0.00228242 37.2765 0.00310383 37.1439 0.0422606C37.0112 0.0814174 36.8904 0.153104 36.7924 0.250808L30.2409 6.80232C29.5812 6.70229 28.9153 6.64956 28.2481 6.64456H16.6231C15.9559 6.64953 15.2899 6.70226 14.6302 6.80232L8.07868 0.242504C7.98075 0.1448 7.85995 0.0731136 7.72727 0.0339569C7.59459 -0.00519993 7.45422 -0.0105862 7.31893 0.0182873C7.18364 0.0471608 7.0577 0.109379 6.95256 0.19929C6.84743 0.289201 6.76642 0.403956 6.7169 0.533129C5.49646 3.77873 5.55285 7.3665 6.87467 10.5721C5.4968 11.8878 4.3995 13.4687 3.64887 15.2197C2.89824 16.9707 2.50982 18.8555 2.50699 20.7606V21.2256C2.50774 23.0283 2.13747 24.8118 1.41922 26.4652L0.0823452 29.5624C0.0133165 29.7056 -0.0131424 29.8657 0.00611227 30.0235C0.0253669 30.1813 0.0895259 30.3303 0.190965 30.4527C0.292404 30.5751 0.426857 30.6659 0.578349 30.7141C0.729841 30.7624 0.892001 30.7661 1.04556 30.7249L6.21868 29.4296L4.20922 35.4663C4.16154 35.6075 4.15276 35.759 4.1838 35.9048C4.21484 36.0505 4.28455 36.1853 4.38562 36.2949C4.4867 36.4044 4.6154 36.4848 4.75822 36.5275C4.90105 36.5701 5.05273 36.5736 5.19734 36.5374L11.2423 35.0262L12.5875 37.2764C12.7038 37.4712 12.8064 37.6737 12.8948 37.8826C12.9363 37.9822 12.9695 38.0902 13.0027 38.1898C13.0359 38.2895 13.0857 38.414 13.119 38.522C13.1522 38.6299 13.1605 38.7296 13.1854 38.8292C13.2103 38.9288 13.2435 39.07 13.2518 39.1863C13.2601 39.3025 13.2518 39.4021 13.2518 39.5101C13.2518 39.618 13.2518 39.7758 13.2518 39.917C13.2422 40.5478 13.3592 41.1741 13.596 41.7589C13.8328 42.3437 14.1844 42.875 14.6302 43.3214C14.8818 43.5799 15.1602 43.8109 15.4606 44.0106L15.8176 44.2265C16.5597 44.6371 17.3942 44.8514 18.2423 44.8493H26.4213C27.1054 44.8483 27.7826 44.7121 28.4139 44.4485C29.0452 44.1849 29.6181 43.799 30.0998 43.3131C30.5678 42.8683 30.9396 42.3323 31.1924 41.7382C31.4452 41.1441 31.5735 40.5045 31.5695 39.8588C31.5565 39.6515 31.5565 39.4435 31.5695 39.2361C31.5695 39.2361 31.5695 39.1863 31.5695 39.1613C31.5957 38.9571 31.6345 38.7546 31.6857 38.5552C31.6857 38.5552 31.6857 38.5054 31.6857 38.4804C31.8051 38.0311 31.9868 37.6007 32.2255 37.2017L33.5706 34.9597L39.6738 36.5374C39.8184 36.5736 39.9701 36.5701 40.1129 36.5275C40.2557 36.4848 40.3844 36.4044 40.4855 36.2949C40.5866 36.1853 40.6563 36.0505 40.6873 35.9048C40.7184 35.759 40.7096 35.6075 40.6619 35.4663L38.6524 29.4296L43.8256 30.7249C43.9761 30.7627 44.1342 30.7576 44.282 30.7101C44.4297 30.6625 44.5612 30.5746 44.6615 30.4561C44.7618 30.3377 44.8269 30.1935 44.8494 30.0399C44.8719 29.8864 44.8509 29.7296 44.7888 29.5873V29.5624ZM37 2.38483C37.5891 4.71531 37.4764 7.16789 36.6762 9.43456L36.4935 9.31C36.261 9.1384 36.023 8.97786 35.7794 8.8284L35.4639 8.63741C35.2203 8.49349 34.9712 8.35509 34.7165 8.22224L34.4508 8.08107C34.1104 7.915 33.7616 7.75724 33.4129 7.61608L33.2302 7.55795C32.9313 7.44724 32.6296 7.34482 32.3251 7.25072L32.184 7.2009L37 2.38483ZM7.8711 2.38483L12.6872 7.2009L12.5377 7.25072C12.2388 7.33929 11.9426 7.43893 11.6492 7.54965L11.4582 7.61608C11.1012 7.75724 10.7607 7.9067 10.4203 8.07277L10.1546 8.21393C9.89993 8.34679 9.64806 8.48518 9.39895 8.62911L9.09172 8.82009C8.84815 8.97509 8.60735 9.1384 8.36931 9.31L8.19493 9.42625C7.39472 7.15958 7.28206 4.70701 7.8711 2.37652V2.38483ZM18.3585 43.1803C17.6799 43.1778 17.0166 42.9788 16.4487 42.6073C16.2697 42.4852 16.1029 42.3462 15.9505 42.1921C15.6351 41.8809 15.3853 41.5097 15.2156 41.1004C15.0459 40.6912 14.9598 40.2521 14.9623 39.809C14.9623 39.6596 14.9623 39.5184 14.9623 39.3772C14.9623 39.2361 14.9623 39.0949 14.9623 38.9538C14.9623 38.8126 14.9042 38.6299 14.8627 38.4638C14.8212 38.2978 14.8129 38.1898 14.7797 38.057C14.7465 37.9241 14.6717 37.7497 14.6219 37.6003C14.5721 37.4508 14.5389 37.3263 14.4807 37.2017C14.3619 36.9156 14.2231 36.6381 14.0656 36.3713L12.4713 33.8138V25.6016C12.4735 24.7588 12.8092 23.9512 13.4052 23.3552C14.0011 22.7593 14.8088 22.4235 15.6515 22.4213C16.6087 22.4177 17.5542 22.631 18.4171 23.0452C19.28 23.4594 20.0378 24.0637 20.6337 24.8128L21.7962 26.2659C21.874 26.3629 21.9726 26.4411 22.0847 26.4949C22.1968 26.5487 22.3195 26.5766 22.4439 26.5766C22.5682 26.5766 22.6909 26.5487 22.803 26.4949C22.9151 26.4411 23.0137 26.3629 23.0915 26.2659L24.254 24.8128C24.8499 24.0637 25.6077 23.4594 26.4706 23.0452C27.3335 22.631 28.279 22.4177 29.2362 22.4213C30.0761 22.4279 30.8795 22.7656 31.4718 23.3611C32.0642 23.9565 32.3977 24.7617 32.3998 25.6016V33.8138L30.8554 36.388C30.5399 36.9059 30.2968 37.4647 30.133 38.0487C30.133 38.1566 30.133 38.2563 30.0748 38.3642C30.0167 38.4721 29.9835 38.7545 29.9586 38.9538C29.9586 39.0285 29.9586 39.0949 29.9586 39.1696C29.9459 39.4075 29.9459 39.6459 29.9586 39.8838C29.9643 40.2951 29.8871 40.7035 29.7316 41.0844C29.5761 41.4653 29.3455 41.811 29.0535 42.1008C28.7279 42.431 28.3401 42.6935 27.9126 42.873C27.485 43.0526 27.0262 43.1457 26.5624 43.1471L18.3585 43.1803ZM37.5813 27.4035C37.4367 27.3673 37.285 27.3708 37.1422 27.4135C36.9993 27.4561 36.8706 27.5365 36.7696 27.646C36.6685 27.7556 36.5988 27.8904 36.5677 28.0361C36.5367 28.1819 36.5455 28.3334 36.5931 28.4746L38.6026 34.5113L34.0606 33.3987V25.6016C34.0584 24.3184 33.5476 23.0883 32.6402 22.1809C31.7329 21.2736 30.5028 20.7628 29.2196 20.7606C28.015 20.7578 26.8253 21.0275 25.7396 21.5495C24.654 22.0715 23.7004 22.8322 22.9504 23.7748L22.4356 24.4142L21.9207 23.7748C21.1707 22.8322 20.2171 22.0715 19.1315 21.5495C18.0458 21.0275 16.8562 20.7578 15.6515 20.7606C14.3683 20.7628 13.1383 21.2736 12.2309 22.1809C11.3235 23.0883 10.8128 24.3184 10.8106 25.6016V33.3987L6.2602 34.5363L8.26967 28.4996C8.32265 28.3578 8.33587 28.2042 8.30789 28.0554C8.27991 27.9066 8.21179 27.7684 8.1109 27.6555C8.01002 27.5426 7.8802 27.4595 7.73549 27.4151C7.59078 27.3707 7.43667 27.3667 7.28985 27.4035L2.3077 28.6573L2.98029 27.1046C3.77348 25.2466 4.1776 23.2458 4.1677 21.2256V20.7606C4.16701 17.8283 5.20095 14.9897 7.08746 12.7447C8.97397 10.4997 11.5921 8.99232 14.4807 8.48795C15.1881 8.36463 15.905 8.3035 16.6231 8.30527H28.2481C29.5384 8.30597 30.8211 8.5048 32.0511 8.89482C34.5645 9.70074 36.7569 11.2843 38.312 13.4169C39.8671 15.5496 40.7045 18.1212 40.7034 20.7606V21.2256C40.7017 23.2537 41.1172 25.2605 41.924 27.1212L42.5966 28.6739L37.5813 27.4035Z" fill="white"/>
</svg>
